<svg id="Capa_1" enable-background="new 0 0 512 512" height="300" viewBox="0 0 512 512" width="300" xmlns="http://www.w3.org/2000/svg" version="1.1" xmlns:xlink="http://www.w3.org/1999/xlink" xmlns:svgjs="http://svgjs.dev/svgjs"><g transform="matrix(1,0,0,1,0,0)"><g><path d="m85.605 64.395-29.981-29.982c-5.856-5.871-15.428-5.835-21.248 0l-29.981 29.982c-5.859 5.859-5.859 15.352 0 21.211s15.351 5.86 21.211 0l4.394-4.395v113.789c0 8.291 6.709 15 15 15s15-6.709 15-15v-113.789l4.395 4.395c5.859 5.859 15.351 5.86 21.211 0 5.859-5.86 5.859-15.352-.001-21.211z" fill="#23b2e7ff" data-original-color="#000000ff" stroke="none"/><path d="m507.605 64.395-29.982-29.982c-5.79-5.806-15.366-5.897-21.248 0l-29.982 29.982c-5.859 5.859-5.859 15.352 0 21.211s15.351 5.86 21.211 0l4.396-4.395v113.789c0 8.291 6.709 15 15 15s15-6.709 15-15v-113.789l4.395 4.395c5.859 5.859 15.351 5.86 21.211 0 5.859-5.86 5.859-15.352-.001-21.211z" fill="#23b2e7ff" data-original-color="#000000ff" stroke="none"/><g><path d="m136 360c9.21 0 17.771-2.803 24.91-7.57l50.095 37.57h89.989l50.096-37.57c7.139 4.766 15.699 7.57 24.91 7.57 24.814 0 45-20.186 45-45s-20.186-45-45-45-45 20.186-45 45c0 4.671.917 9.091 2.245 13.33l-62.245 46.672v-106.518c67.315-7.573 120-64.177 120-133.484 0-74.443-60.557-135-135-135s-135 60.557-135 135c0 69.307 52.685 125.911 120 133.484v106.518l-62.245-46.672c1.327-4.239 2.245-8.659 2.245-13.33 0-24.814-20.186-45-45-45s-45 20.186-45 45 20.186 45 45 45zm88.154-163.198c-5.83-5.859-5.83-15.366.029-21.211 5.859-5.83 15.381-5.859 21.24.029 8.585 8.672 25.577 1.685 25.577-10.62 0-8.276-6.738-15-15-15-24.814 0-45-20.186-45-45 0-19.53 12.578-36.024 30-42.237v-17.763c0-8.291 6.709-15 15-15s15 6.709 15 15v17.725c6.248 2.21 12.028 5.647 16.846 10.474 5.83 5.859 5.83 15.366-.029 21.211-5.859 5.83-15.381 5.859-21.24-.029-8.614-8.658-25.577-1.671-25.577 10.619 0 8.276 6.738 15 15 15 24.814 0 45 20.186 45 45 0 19.53-12.578 36.024-30 42.237v17.763c0 8.291-6.709 15-15 15s-15-6.709-15-15v-17.725c-6.248-2.21-12.028-5.647-16.846-10.473z" fill="#23b2e7ff" data-original-color="#000000ff" stroke="none"/></g><path d="m136 420c-8.284 0-15 6.716-15 15v2c0 41.353 33.633 75 75 75h120c41.367 0 75-33.647 75-75v-2c0-8.284-6.716-15-15-15z" fill="#23b2e7ff" data-original-color="#000000ff" stroke="none"/></g></g></svg>