<svg id="Layer_1" enable-background="new 0 0 64 64" viewBox="0 0 64 64" xmlns="http://www.w3.org/2000/svg" xmlns:xlink="http://www.w3.org/1999/xlink" width="300" height="300" version="1.1" xmlns:svgjs="http://svgjs.dev/svgjs"><g transform="matrix(1,0,0,1,0,0)"><g><path d="m36.9 5-7.9-4.5-19.1 11c-.1.1-.3.2-.4.3 0 0-.1.1-.1.1-.1.1-.1.1-.2.2 0 0-.1.1-.1.1s0 .1-.1.1c0 0-.1.1-.1.1-.1.1-.1.1-.2.2 0 0 0 .1-.1.1s0 0-.1.1c0 .1-.1.1-.1.2s-.1.1-.1.2c0 .1-.1.1-.1.2s-.1.1-.1.2-.1.1-.1.2v.1c0 .1-.1.1-.1.2v.1.1c0 .1 0 .2-.1.3v.2.1.1.4l.1 35.6c0 .7.2 1.2.6 1.4l19.3 11c-.4-.2-.6-.7-.6-1.4l-.2-35.6c0-.2 0-.3 0-.5v-.1c0-.2.1-.3.1-.5.1-.2.1-.3.2-.5.1-.2.2-.3.3-.5.1-.2.2-.3.3-.5.1-.1.2-.3.3-.4 0 0 0-.1.1-.1l.3-.3s.1-.1.1-.1c.1-.1.3-.2.4-.3l19.1-11 7.9 4.5z" fill="url(#SVGID_1_)" data-original-color="SVGID_1_" stroke="none"/><path d="m56.3 45.1c0 1.4-1 3.1-2.2 3.8l-24.8 14.3c-1.2.7-2.2.1-2.2-1.3l-.1-35.5c0-1.4 1-3.1 2.2-3.8l18-10.4 1.1-.6 7.9 4.5z" fill="#ddd9d7ff" data-original-color="#ddd9d7ff" stroke="none"/><path d="m49 19.4-1.1-.7c-.4-.2-.6-.7-.6-1.4v-5.2l1.1-.6v6.5c-.1.7.2 1.2.6 1.4z" fill="url(#SVGID_2_)" data-original-color="SVGID_2_" stroke="none"/><g><path d="m48.3 11.5 7.9 4.6-5.7 3.2c-1.2.7-2.2.1-2.2-1.3z" fill="#aba8a6ff" data-original-color="#aba8a6ff" stroke="none"/></g><path d="m52.2 33.7-2.8-1.7v-3.2l2.8 1.6z" fill="#1f2b5fff" data-original-color="#840f2dff" stroke="none"/><path d="m43.7 41.8-2.7-1.6 7-12.2 2.8 1.6z" fill="#1f2b5fff" data-original-color="#b7153fff" stroke="none"/><path d="m48 31.2-2.8-1.6v-2.2l2.7 1.6z" fill="#1f2b5fff" data-original-color="#840f2dff" stroke="none"/><path d="m47.9 29-2.7-1.6 6.1-3.6 2.8 1.6z" fill="#1f2b5fff" data-original-color="#d51849ff" stroke="none"/><path d="m38.3 38.7-2.8-1.6 5.5 3.1 2.7 1.6z" fill="#1f2b5fff" data-original-color="#991135ff" stroke="none"/><path d="m31.2 51-2.8-1.6 7.1-12.3 2.8 1.6z" fill="#1f2b5fff" data-original-color="#b7153fff" stroke="none"/><path d="m54.1 25.4v7.1l-1.9 1.2v-3.3l-8.5 14.6-5.4-3.1-5.8 9.9-1.3-.8 7.1-12.3 5.4 3.1 7.1-12.2-2.8 1.6-.1-2.2z" fill="#23b2e7ff" data-original-color="#f71c55ff" stroke="none"/></g></g><defs><linearGradient id="SVGID_1_"><stop stop-color="#c4c4c4ff" offset="0"/><stop stop-color="#b2b2b2ff" offset="0.06424581"/><stop stop-color="#b2b2b2ff" offset="0.176"/><stop stop-color="#737474ff" offset="0.3883"/><stop stop-color="#b2b2b2ff" offset="0.5894"/><stop stop-color="#b2b2b2ff" offset="0.9347"/><stop stop-color="#4f5050ff" offset="1"/></linearGradient><linearGradient id="SVGID_2_"><stop stop-color="#c4c4c4ff" offset="0"/><stop stop-color="#b2b2b2ff" offset="0.1592"/><stop stop-color="#b2b2b2ff" offset="0.39390000000000003"/><stop stop-color="#4f5050ff" offset="1"/></linearGradient></defs></svg>