<svg enable-background="new 0 0 512 512" viewBox="0 0 512 512" xmlns="http://www.w3.org/2000/svg" width="300" height="300" version="1.1" xmlns:xlink="http://www.w3.org/1999/xlink" xmlns:svgjs="http://svgjs.dev/svgjs"><g transform="matrix(1,0,0,1,0,0)"><g id="_x30_5_Currency"><g><g><circle cx="372.992" cy="359.934" fill="#1f2b5fff" r="121.476" data-original-color="#c9def7ff" stroke="none" style=""/></g><g><circle cx="372.992" cy="359.934" fill="#23b2e7ff" r="86.393" data-original-color="#ffffffff" stroke="none"/></g><g><path d="m417.229 106.336h-21.433v74.479c0 3.189-2.585 5.774-5.774 5.774h-34.061c-3.189 0-5.774-2.585-5.774-5.774v-74.479h-21.433c-4.657 0-7.398-5.231-4.747-9.06l44.237-63.898c2.296-3.316 7.198-3.316 9.494 0l44.237 63.898c2.652 3.829-.089 9.06-4.746 9.06z" fill="#1f2b5fff" data-original-color="#c9def7ff" stroke="none" style=""/></g><g><path d="m94.769 405.664h21.433v-74.479c0-3.189 2.585-5.774 5.774-5.774h34.061c3.189 0 5.774 2.585 5.774 5.774v74.479h21.433c4.657 0 7.398 5.231 4.747 9.06l-44.237 63.898c-2.296 3.316-7.198 3.316-9.494 0l-44.237-63.898c-2.652-3.829.089-9.06 4.746-9.06z" fill="#1f2b5fff" data-original-color="#c9def7ff" stroke="none" style=""/></g><g><g><circle cx="139.006" cy="152.066" fill="#1f2b5fff" r="121.476" data-original-color="#c9def7ff" stroke="none" style=""/></g><g><circle cx="139.006" cy="152.066" fill="#23b2e7ff" r="86.393" data-original-color="#ffffffff" stroke="none"/></g></g><g fill="#0c76f0"><path d="m139.006 278.312c69.612 0 126.244-56.634 126.244-126.246s-56.632-126.247-126.244-126.247-126.244 56.634-126.244 126.247 56.631 126.246 126.244 126.246zm0-242.954c64.349 0 116.705 52.354 116.705 116.708s-52.356 116.708-116.705 116.708-116.705-52.354-116.705-116.708 52.356-116.708 116.705-116.708z" fill="#ffffffff" data-original-color="#0c76f0ff" stroke="none" style=""/><path d="m139.006 243.227c50.269 0 91.163-40.894 91.163-91.161s-40.894-91.163-91.163-91.163-91.163 40.896-91.163 91.163 40.893 91.161 91.163 91.161zm0-172.786c45.006 0 81.624 36.616 81.624 81.624 0 45.006-36.618 81.622-81.624 81.622s-81.624-36.616-81.624-81.622c0-45.008 36.618-81.624 81.624-81.624z" fill="#ffffffff" data-original-color="#0c76f0ff" stroke="none" style=""/><path d="m139.006 185.875c-8.011 0-14.527-6.516-14.527-14.527 0-2.634-2.133-4.769-4.769-4.769s-4.769 2.135-4.769 4.769c0 11.636 8.304 21.364 19.296 23.583v9.723c0 2.634 2.133 4.769 4.769 4.769s4.769-2.136 4.769-4.769v-9.723c10.992-2.22 19.296-11.947 19.296-23.583 0-13.269-10.796-24.063-24.066-24.063-8.011 0-14.527-6.516-14.527-14.527s6.516-14.527 14.527-14.527 14.527 6.516 14.527 14.527c0 2.634 2.133 4.769 4.769 4.769s4.769-2.135 4.769-4.769c0-11.636-8.304-21.364-19.296-23.583v-9.697c0-2.634-2.133-4.769-4.769-4.769s-4.769 2.136-4.769 4.769v9.697c-10.992 2.22-19.296 11.947-19.296 23.583 0 13.269 10.796 24.066 24.066 24.066 8.011 0 14.527 6.516 14.527 14.525 0 8.01-6.516 14.526-14.527 14.526z" fill="#ffffffff" data-original-color="#0c76f0ff" stroke="none" style=""/><path d="m372.989 486.181c69.612 0 126.249-56.634 126.249-126.246s-56.636-126.246-126.249-126.246-126.244 56.634-126.244 126.246 56.632 126.246 126.244 126.246zm0-242.954c64.354 0 116.71 52.354 116.71 116.708s-52.356 116.708-116.71 116.708c-64.349 0-116.705-52.354-116.705-116.708s52.356-116.708 116.705-116.708z" fill="#ffffffff" data-original-color="#0c76f0ff" stroke="none" style=""/><path d="m372.989 451.097c50.269 0 91.163-40.896 91.163-91.163s-40.894-91.161-91.163-91.161c-50.265 0-91.158 40.894-91.158 91.161s40.894 91.163 91.158 91.163zm0-172.785c45.006 0 81.624 36.616 81.624 81.622 0 45.009-36.618 81.624-81.624 81.624s-81.62-36.616-81.62-81.624c.001-45.006 36.614-81.622 81.62-81.622z" fill="#ffffffff" data-original-color="#0c76f0ff" stroke="none" style=""/><path d="m355.77 407.682h8.468v11.602c0 2.634 2.133 4.769 4.769 4.769s4.769-2.135 4.769-4.769v-11.602h4.518c14.48 0 26.26-11.779 26.26-26.26 0-8.882-4.444-16.734-11.215-21.488 6.77-4.754 11.215-12.606 11.215-21.488 0-14.48-11.779-26.26-26.26-26.26h-4.518v-11.602c0-2.634-2.133-4.769-4.769-4.769s-4.769 2.135-4.769 4.769v11.602h-8.468c-2.636 0-4.769 2.135-4.769 4.769v85.956c0 2.635 2.133 4.771 4.769 4.771zm39.245-26.26c0 9.22-7.499 16.721-16.721 16.721h-17.754v-33.439h17.755c9.222 0 16.72 7.498 16.72 16.718zm-34.475-59.696h17.755c9.222 0 16.721 7.501 16.721 16.721s-7.499 16.718-16.721 16.718h-17.755z" fill="#ffffffff" data-original-color="#0c76f0ff" stroke="none" style=""/><path d="m328.756 111.105h16.66v69.71c0 5.813 4.732 10.542 10.545 10.542h34.061c5.813 0 10.545-4.73 10.545-10.542v-69.71h16.66c3.936 0 7.517-2.166 9.343-5.654 1.826-3.486 1.565-7.659-.675-10.889l-44.233-63.898c-4.192-6.05-13.15-6.048-17.34 0l-44.238 63.898c-2.24 3.235-2.496 7.408-.671 10.892 1.831 3.485 5.408 5.651 9.343 5.651zm-.829-11.113 44.238-63.898c.4-.58 1.254-.581 1.653 0l44.238 63.9c.228.331.247.678.061 1.034s-.484.538-.89.538h-21.43c-2.636 0-4.769 2.136-4.769 4.769v74.48c0 .554-.452 1.004-1.006 1.004h-34.061c-.554 0-1.006-.449-1.006-1.004v-74.48c0-2.634-2.133-4.769-4.769-4.769h-21.43c-.405 0-.703-.182-.894-.54-.186-.357-.163-.706.065-1.034z" fill="#ffffffff" data-original-color="#0c76f0ff" stroke="none" style=""/><path d="m156.039 320.643h-34.061c-5.813 0-10.545 4.73-10.545 10.542v69.71h-16.665c-3.936 0-7.513 2.163-9.338 5.65-1.826 3.484-1.57 7.659.671 10.894l44.238 63.898c4.192 6.05 13.145 6.048 17.336 0l44.238-63.898c2.24-3.235 2.496-7.41.671-10.894-1.826-3.486-5.403-5.65-9.338-5.65h-16.665v-69.71c-.002-5.812-4.73-10.542-10.542-10.542zm27.205 89.791c.401 0 .703.182.89.538.186.356.163.706-.065 1.036l-44.238 63.898c-.494.717-1.155.717-1.649 0l-44.238-63.898c-.228-.331-.252-.68-.065-1.036.186-.356.489-.538.89-.538h21.434c2.636 0 4.769-2.135 4.769-4.769v-74.48c0-.554.452-1.004 1.006-1.004h34.061c.554 0 1.001.449 1.001 1.004v74.48c0 2.634 2.133 4.769 4.769 4.769z" fill="#ffffffff" data-original-color="#0c76f0ff" stroke="none" style=""/></g></g></g><g id="Layer_1"/></g></svg>