<svg id="OBJECT" viewBox="0 0 32 32" xmlns="http://www.w3.org/2000/svg" width="300" height="300" version="1.1" xmlns:xlink="http://www.w3.org/1999/xlink" xmlns:svgjs="http://svgjs.dev/svgjs"><g transform="matrix(1,0,0,1,0,0)"><path d="m25.5 7h4.91l-5.41-5.41v4.91c0 .28.22.5.5.5z" fill="#23b2e7ff" data-original-color="#000000ff" stroke="none"/><path d="m25.5 9c-1.38 0-2.5-1.12-2.5-2.5v-5.5h-13.5c-1.38 0-2.5 1.12-2.5 2.5v5.86c.95 0 1.83.47 2.36 1.24.03.04.94 1.33 2.64 1.33h.13c.75 0 1.49.3 2.02.82.54.53.85 1.27.85 2.03v5.15c0 2.77-1.32 5.42-3.54 7.08l-2.74 2.06c-.42.31-.92.5-1.44.55.41.81 1.25 1.38 2.22 1.38h19c1.38 0 2.5-1.12 2.5-2.5v-19.5zm-7.5 4h.5c.55 0 1 .45 1 1s-.45 1-1 1h-.5c-.55 0-1-.45-1-1s.45-1 1-1zm-3-5h-1v1c0 .55-.45 1-1 1s-1-.45-1-1v-1h-1c-.55 0-1-.45-1-1s.45-1 1-1h1v-1c0-.55.45-1 1-1s1 .45 1 1v1h1c.55 0 1 .45 1 1s-.45 1-1 1zm11 19h-8c-.55 0-1-.45-1-1s.45-1 1-1h8c.55 0 1 .45 1 1s-.45 1-1 1zm-9-5c0-.55.45-1 1-1h.5c.55 0 1 .45 1 1s-.45 1-1 1h-.5c-.55 0-1-.45-1-1zm9 1h-4c-.55 0-1-.45-1-1s.45-1 1-1h4c.55 0 1 .45 1 1s-.45 1-1 1zm0-4h-8c-.55 0-1-.45-1-1s.45-1 1-1h8c.55 0 1 .45 1 1s-.45 1-1 1zm0-4h-4c-.55 0-1-.45-1-1s.45-1 1-1h4c.55 0 1 .45 1 1s-.45 1-1 1z" fill="#23b2e7ff" data-original-color="#000000ff" stroke="none"/><path d="m10.26 25.41c1.72-1.29 2.74-3.34 2.74-5.49v-5.15c0-.23-.09-.45-.26-.61-.16-.16-.39-.25-.61-.25-2.86.07-4.36-2.1-4.42-2.19-.16-.23-.42-.37-.7-.37-.28 0-.55.14-.71.37-.06.09-1.55 2.2-4.34 2.2-.03 0-.06 0-.08 0-.22 0-.45.09-.61.25s-.26.38-.26.61v5.15c0 2.15 1.02 4.2 2.74 5.49l2.74 2.06c.15.11.33.17.51.17s.36-.06.51-.17l2.74-2.06zm-3.93-3.25c-.27 0-.54-.11-.72-.31l-1.83-1.92c-.38-.4-.37-1.03.03-1.41s1.03-.36 1.41.04l1.1 1.16 2.45-2.57c.38-.4 1.01-.41 1.41-.04.4.38.42 1.01.03 1.41l-3.17 3.33c-.19.2-.45.31-.72.31z" fill="#23b2e7ff" data-original-color="#000000ff" stroke="none"/></g></svg>