<svg id="Capa_1" enable-background="new 0 0 512 512" height="300" viewBox="0 0 512 512" width="300" xmlns="http://www.w3.org/2000/svg" version="1.1" xmlns:xlink="http://www.w3.org/1999/xlink" xmlns:svgjs="http://svgjs.dev/svgjs"><g transform="matrix(1,0,0,1,0,0)"><g><path d="m512 256c0 141.38-114.62 256-256 256-16.51 0-32.65-1.56-48.29-4.55-9.01-1.72-20.512-25.799-29.152-28.439-10.82-3.3-21.33-7.3-31.48-11.94-5.77-2.63-11.43-5.48-16.96-8.52-1.68-.92-3.34-1.86-4.99-2.83-9.21-5.33-15.388 10.659-23.828 4.259-61.55-46.75-101.3-120.73-101.3-203.98 0-94.67 51.39-177.33 127.79-221.62 7.11-4.13 14.43-7.91 21.95-11.34 10.15-4.65 20.66-8.64 31.48-11.94 23.66-7.22 48.76-11.1 74.78-11.1 141.38 0 256 114.62 256 256z" fill="#1f2b5fff" data-original-color="#f6e266ff" stroke="none" style=""/><path d="m464.566 283.438-8.852 64.639c-1.879 13.758-17.969 20.327-28.94 11.816l-11.084-8.6-64.841 78.964c-5.372 6.545-14.564 8.499-22.13 4.716l-109.947-54.967-62.697 82.192c-27.427-18.095-20.264-33.782-20.264-33.782l63.113-82.76c5.284-6.923 14.754-9.117 22.547-5.22l110.35 55.169 54.929-66.758-11.538-8.94c-10.971-8.524-8.613-25.724 4.25-30.983l60.402-24.653c12.861-5.246 26.594 5.396 24.702 19.167z" fill="#ffffffff" data-original-color="#ffc250ff" stroke="none" style=""/><path d="m181.22 0v473.924c-10.82-3.3-21.33-7.3-31.48-11.94-5.77-2.63-11.43-5.48-16.96-8.52-1.68-.92-3.34-1.86-4.99-2.83v-450.634z" fill="#ffffffff" data-original-color="#524798ff" stroke="none"/><path d="m149.74 0v466.861c-5.77-2.63-11.43-5.48-16.96-8.52-1.68-.92-3.34-1.86-4.99-2.83v-455.511z" fill="#ffffffff" data-original-color="#453d81ff" stroke="none" style=""/><path d="m460.63 206.21c10 20.54-4.96 44.46-27.8 44.46h-323.66v-229.45h323.66c22.84 0 37.8 23.92 27.8 44.46l-27.63 56.73c-4.16 8.54-4.16 18.53 0 27.08z" fill="#23b2e7ff" data-original-color="#dc4261ff" stroke="none" style=""/><path d="m109.17 21.22h40.57v229.45h-40.57z" fill="#23b2e7ff" data-original-color="#d80a61ff" stroke="none" style=""/><g fill="#f6f6f6"><path d="m159.812 68.877c-5.12 0-9.271 4.151-9.271 9.271v105.684c0 5.12 4.151 9.271 9.271 9.271s9.271-4.151 9.271-9.271v-105.683c0-5.121-4.15-9.272-9.271-9.272z" fill="#f6f6f6ff" data-original-color="#f6f6f6ff" stroke="none" style=""/><path d="m236.271 68.877h-29.427c-5.12 0-9.271 4.151-9.271 9.271v105.684c0 5.12 4.151 9.271 9.271 9.271s9.271-4.151 9.271-9.271v-36.686c6.78-.037 15.58-.079 20.156-.079 21.879 0 39.679-17.538 39.679-39.095s-17.8-39.095-39.679-39.095zm0 59.649c-4.588 0-13.366.042-20.156.078v-41.184h20.156c11.458 0 21.137 9.412 21.137 20.553s-9.679 20.553-21.137 20.553z" fill="#f6f6f6ff" data-original-color="#f6f6f6ff" stroke="none" style=""/><path d="m342.816 68.877c-34.249 0-62.113 27.864-62.113 62.113s27.864 62.113 62.113 62.113c34.25 0 62.114-27.864 62.114-62.113s-27.865-62.113-62.114-62.113zm0 105.685c-24.025 0-43.571-19.546-43.571-43.571s19.545-43.571 43.571-43.571 43.571 19.546 43.571 43.571-19.546 43.571-43.571 43.571z" fill="#f6f6f6ff" data-original-color="#f6f6f6ff" stroke="none" style=""/></g><path d="m207.71 440.52v66.93c-39.43-7.53-75.64-24.1-106.41-47.47v-19.46c0-13.76 11.15-24.91 24.91-24.91h56.59c13.76 0 24.91 11.15 24.91 24.91z" fill="#23b2e7ff" data-original-color="#ac80ddff" stroke="none" style=""/><path d="m157.7 415.61c-13.76 0-24.92 11.15-24.92 24.91v39.92c-11.02-6.06-21.53-12.91-31.48-20.46v-19.46c0-13.76 11.15-24.91 24.91-24.91z" fill="#23b2e7ff" data-original-color="#9d66d5ff" stroke="none" style=""/></g></g></svg>