<svg id="Capa_1" enable-background="new 0 0 510 510" height="300" viewBox="0 0 510 510" width="300" xmlns="http://www.w3.org/2000/svg" version="1.1" xmlns:xlink="http://www.w3.org/1999/xlink" xmlns:svgjs="http://svgjs.dev/svgjs"><g transform="matrix(1,0,0,1,0,0)"><g><path d="m435 0h75v240h-75z" fill="#23b2e7ff" data-original-color="#000000ff" stroke="none"/><path d="m0 270h75v240h-75z" fill="#23b2e7ff" data-original-color="#000000ff" stroke="none"/><path d="m461.66 322.297c-4.049.073-8.135.731-12.487 2.013l-104.339 30.691c-.004-.045-.01-.09-.014-.136.118 1.418.18 2.851.18 4.297 0 15.749-7.12 30.341-19.533 40.033-9.06 7.073-19.97 10.778-31.142 10.778-4.135 0-8.305-.507-12.433-1.539l-75.531-18.883 7.277-29.104 75.53 18.883c6.259 1.563 12.756.185 17.835-3.782 5.082-3.968 7.996-9.94 7.996-16.387 0-9.723-6.614-18.05-16.086-20.249l-.32-.078-37.708-9.635c4.962 1.112 10.113 1.717 15.406 1.717 38.851 0 70.458-31.607 70.458-70.459 0-32.57-22.219-60.038-52.292-68.071l8.264 2.111c4.288.873 8.739.603 12.892-.781l41.953-13.716c18.051-6.017 31.502-10.496 47.434-12.929v-122.071h-15c-18.537 0-36.985-2.539-54.832-7.547l-136.276-35.48c-.688-.189-1.378-.365-2.071-.527-3.933-.92-7.944-1.372-11.958-1.372-11.01 0-22.035 3.404-31.476 9.898l-124.631 85.742c-1.566 1.077-3.282 2.142-5.1 3.269l-1.261.783c-14.023 8.744-22.395 23.833-22.395 40.363 0 12.866 5.046 24.909 14.208 33.911 9.062 8.905 21.485 13.838 34.132 13.663 4.049-.073 8.135-.731 12.487-2.013l104.339-30.691c.004.045.01.09.014.136-.117-1.418-.18-2.851-.18-4.297 0-15.749 7.12-30.341 19.533-40.033 9.061-7.073 19.97-10.778 31.142-10.778 4.135 0 8.305.507 12.433 1.539l75.531 18.883-7.277 29.104-75.53-18.883c-6.259-1.563-12.756-.184-17.835 3.782-5.082 3.968-7.996 9.94-7.996 16.387 0 9.723 6.614 18.05 16.086 20.249l.32.078 81.777 20.896c-5.415-1.338-11.069-2.061-16.892-2.061-38.851 0-70.458 31.607-70.458 70.458 0 32.123 21.615 59.273 51.059 67.721l-49.613-12.677c-4.289-.873-8.74-.603-12.893.781l-41.953 13.716c-18.05 6.017-31.502 10.496-47.434 12.929v122.071h15c18.538 0 36.985 2.539 54.832 7.547l136.276 35.48c.688.189 1.378.365 2.071.527 3.933.92 7.944 1.372 11.958 1.372 11.01 0 22.035-3.404 31.476-9.898l124.631-85.742c1.566-1.077 3.282-2.142 5.1-3.268l1.261-.783c14.023-8.745 22.395-23.834 22.395-40.364 0-12.866-5.046-24.909-14.208-33.911-9.062-8.905-21.485-13.838-34.132-13.663z" fill="#23b2e7ff" data-original-color="#000000ff" stroke="none"/></g></g></svg>