<svg version="1.1" id="Capa_1" xmlns="http://www.w3.org/2000/svg" xmlns:xlink="http://www.w3.org/1999/xlink" x="0px" y="0px" viewBox="0 0 470.101 470.101" style="enable-background:new 0 0 470.101 470.101;" xml:space="preserve" width="300" height="300" xmlns:svgjs="http://svgjs.dev/svgjs"><g transform="matrix(1,0,0,1,0,0)"><g>
	<path style="" d="M367.651,337.901l-0.3-0.3l-27.1,27.1l30.6,30.9l7.9,7.9l27.1-27.4l-30.6-30.7L367.651,337.901z&#10;&#9;&#9; M367.651,311.301h68c11,0,20,9,20,20v108.9c0,11-9,20-20,20h-168.4c-11,0-20-9-20-20v-108.9c0-11,9-20,20-20H367.651&#10;&#9;&#9;L367.651,311.301z" fill="#23b2e7ff" data-original-color="#fedb41ff" stroke="none"/>
	<path style="" d="M444.451,191.201h-101.7l81.9-81.9l0.2-0.1C437.751,134.601,444.551,162.701,444.451,191.201z" fill="#23b2e7ff" data-original-color="#fedb41ff" stroke="none"/>
</g><g>
	<path style="" d="M424.751,109.201l-0.2,0.1l-81.9,81.9h-79.4v-0.6l127.9-127.9l0,0c0.1,0.1,0.2,0.2,0.3,0.3&#10;&#9;&#9;C404.851,76.601,416.151,92.201,424.751,109.201z" fill="#23b2e7ff" data-original-color="#00efd1ff" stroke="none"/>
	<polygon style="" points="367.651,337.901 375.251,345.401 405.851,376.001 378.751,403.401 370.951,395.501 &#10;&#9;&#9;340.351,364.701 367.451,337.601 &#9;" fill="#23b2e7ff" data-original-color="#00efd1ff" stroke="none"/>
</g><path style="" d="M391.151,62.701L391.151,62.701l-127.9,127.9v-80l81.3-81.3&#10;&#9;C361.751,38.001,377.451,49.201,391.151,62.701z" fill="#23b2e7ff" data-original-color="#fedb41ff" stroke="none"/><g>
	<path style="" d="M386.651,291.901v19.5h-70.4v-19.5c0-5.5,4.5-10,10-10h50.4&#10;&#9;&#9;C382.151,281.901,386.651,286.301,386.651,291.901z" fill="#23b2e7ff" data-original-color="#00efd1ff" stroke="none"/>
	<path style="" d="M196.051,257.301h181.2c0,8.2-0.6,16.4-1.7,24.6h-49.3c-5.5,0-10,4.5-10,10v19.5h-49&#10;&#9;&#9;c-11,0-20,9-20,20v99.9c-16.6,4.8-33.9,7.3-51.2,7.2c-99.7,0-181.2-80.9-181.2-181.2c0-50.1,20.5-95.2,53-128.2&#10;&#9;&#9;c33.9-34.1,80.1-53.2,128.2-53V257.301z" fill="#23b2e7ff" data-original-color="#00efd1ff" stroke="none"/>
	<path style="" d="M344.551,29.301l-81.3,81.3v-100.6C291.551,10.001,319.351,16.601,344.551,29.301z" fill="#23b2e7ff" data-original-color="#00efd1ff" stroke="none"/>
</g><g>
	<path style="" d="M263.251,201.101h181.2c5.5,0,10-4.4,10-9.9l0,0c0.1-30.1-7.1-59.7-20.8-86.5l0,0&#10;&#9;&#9;c-9.1-17.9-21-34.3-35.1-48.7c-0.1-0.1-0.2-0.2-0.3-0.3s-0.2-0.2-0.2-0.2c-14.4-14.2-31-26-49-35.1c-26.6-13.5-56-20.5-85.8-20.4&#10;&#9;&#9;c-5.5,0-10,4.5-10,10v181.2C253.251,196.701,257.751,201.101,263.251,201.101L263.251,201.101z M346.451,41.601&#10;&#9;&#9;c10.8,6,21,13.2,30.3,21.4l-103.5,103.5v-51.7L346.451,41.601z M434.151,181.101h-67.3l54.8-54.8&#10;&#9;&#9;C428.951,143.701,433.151,162.201,434.151,181.101z M412.451,107.301l-73.9,73.8h-51.7l104.1-104.1&#10;&#9;&#9;C399.151,86.301,406.351,96.501,412.451,107.301z M327.251,32.401l-54,54v-66.1C291.851,21.301,310.051,25.401,327.251,32.401z" fill="#1f2b5fff" data-original-color="#083863ff" stroke="none"/>
	<path style="" d="M435.651,301.101h-39.4v-9.2c0.1-7.2-3.8-13.8-10-17.4c0.5-5.7,0.9-11.5,0.9-17.3&#10;&#9;&#9;c0.1-5.5-4.4-10-9.9-10.1l0,0h-171v-171c0-5.5-4.6-10-10.1-10c-50.8-0.2-99.6,20-135.4,56c-36,36.6-55.9,84.7-55.9,135.2&#10;&#9;&#9;c0,105.4,85.8,191.2,191.2,191.2c13.9,0,27.8-1.5,41.4-4.5c1.9,15,14.7,26.1,29.7,26.1h168.5c16.3,0,29.6-13.2,29.6-29.6&#10;&#9;&#9;c0-0.1,0-0.2,0-0.3v-108.9C465.251,314.801,452.251,301.101,435.651,301.101z M367.451,351.701l24.3,24.3l-13,13.1l-24.3-24.5&#10;&#9;&#9;L367.451,351.701z M326.251,301.101v-9h50v9H326.251z M24.851,257.301c0-45.3,17.9-88.3,50.2-121.1c29.7-29.7,69.3-47.5,111.2-49.8&#10;&#9;&#9;v170.9c-0.1,5.3,4.2,9.7,9.5,9.8c0.1,0,0.2,0,0.3,0h170.9c-0.1,2-0.2,3-0.3,5h-40.4c-10.9-0.1-19.9,8.7-20,19.6v0.1v9.2h-39&#10;&#9;&#9;c-16.6,0.1-30,13.6-30,30.2v92.2c-13.5,3.3-27.3,5-41.2,4.9C101.651,428.501,24.851,351.701,24.851,257.301z M445.251,440.201&#10;&#9;&#9;c0.2,5.3-4,9.7-9.2,9.9c-0.1,0-0.2,0-0.3,0h-168.5c-5.5,0-9.9-4.3-10-9.8v-0.1v-108.9c0-5.6,4.4-10.1,10-10.2h90v12.1l-24.2,24.4&#10;&#9;&#9;c-3.9,3.9-3.8,10.2,0.1,14.1l30.7,30.9l7.9,7.7c1.9,1.8,4.5,2.8,7.1,2.8l0,0c2.6,0,5.2-1,7.1-2.8l27.1-27.3&#10;&#9;&#9;c3.8-4,3.7-10.3-0.3-14.1l-35.5-35.2v-12.6h58.4c5.5,0,9.6,4.7,9.6,10.2V440.201z" fill="#1f2b5fff" data-original-color="#083863ff" stroke="none"/>
</g><g>
</g><g>
</g><g>
</g><g>
</g><g>
</g><g>
</g><g>
</g><g>
</g><g>
</g><g>
</g><g>
</g><g>
</g><g>
</g><g>
</g><g>
</g></g></svg>