<svg id="Layer_1" data-name="Layer 1" xmlns="http://www.w3.org/2000/svg" xmlns:xlink="http://www.w3.org/1999/xlink" viewBox="0 0 394.61 149.4"><defs><style>.cls-1{fill:none;}.cls-2{clip-path:url(#clip-path);}.cls-3{fill:#202b5f;}.cls-4{fill:#24b1e7;}.cls-5{fill:#5e5f5f;}</style><clipPath id="clip-path"><rect class="cls-1" width="394.61" height="149.4"/></clipPath></defs><g class="cls-2"><g class="cls-2"><path class="cls-3" d="M113.58,17.83,109.71,33.5,39.52,75.89a4.13,4.13,0,0,1-6.14-4.52l3.19-12.92a10.6,10.6,0,0,1,4.8-6.51l65.12-39.33a4.77,4.77,0,0,1,7.09,5.22"/><path class="cls-3" d="M106.19,58.41l-6,24.34a6.19,6.19,0,0,1-2.81,3.82l-69.7,42.1a3.3,3.3,0,0,1-4.91-3.62l4.49-18.16a2.3,2.3,0,0,1,1.05-1.44Z"/><path class="cls-4" d="M131.9,26.93l-3.67,14.86a9.75,9.75,0,0,1-4.42,6L48.55,93.24,53.9,71.59a12.86,12.86,0,0,1,5.84-7.94l67.05-40.49a3.44,3.44,0,0,1,5.11,3.77"/><path class="cls-4" d="M122,78.15l-3.53,14.28A12.33,12.33,0,0,1,112.9,100l-63.08,38.1a5.46,5.46,0,0,1-8.12-6l3.47-14,72-43.49A3.25,3.25,0,0,1,122,78.15"/><path d="M170.39,64.93a14,14,0,0,1-5.52,8.79A17.05,17.05,0,0,1,154.39,77a17.56,17.56,0,0,1-12.46-4.64,15.85,15.85,0,0,1-5-12.07,15.92,15.92,0,0,1,4.81-12A16.79,16.79,0,0,1,154,43.53a17.13,17.13,0,0,1,10.47,3.27A13.94,13.94,0,0,1,170,55.6l-7.78,1.86c-1.19-4.29-3.89-6.41-8-6.41a7.86,7.86,0,0,0-6.19,2.56,9.72,9.72,0,0,0-2.25,6.63,9.51,9.51,0,0,0,2.3,6.63,8,8,0,0,0,6.27,2.57A7.91,7.91,0,0,0,162.61,63Z"/><path d="M191.08,54.58h7.52V76.15h-7.52V73.59A9.21,9.21,0,0,1,183.43,77a10.58,10.58,0,0,1-8-3.23,11.72,11.72,0,0,1-3-8.35,11.76,11.76,0,0,1,3-8.36,10.61,10.61,0,0,1,8-3.22,9.18,9.18,0,0,1,7.65,3.36Zm-5.66,15.74A4.73,4.73,0,0,0,189,69a4.85,4.85,0,0,0,1.41-3.58,4.82,4.82,0,0,0-5-5,4.85,4.85,0,0,0-3.58,1.41,4.73,4.73,0,0,0-1.37,3.54,4.7,4.7,0,0,0,4.95,4.95"/><path d="M211.86,74.39V85.88h-8.23V54.58h7.52v2.57a9.18,9.18,0,0,1,7.65-3.36,10.46,10.46,0,0,1,8,3.22,11.61,11.61,0,0,1,3.09,8.36,11.57,11.57,0,0,1-3.09,8.35,10.43,10.43,0,0,1-8,3.23,9.47,9.47,0,0,1-6.94-2.56m4.95-4.07A4.71,4.71,0,0,0,220.34,69a4.86,4.86,0,0,0,1.42-3.58,4.84,4.84,0,0,0-4.95-5,4.84,4.84,0,0,0-3.58,1.41,4.73,4.73,0,0,0-1.37,3.54,4.7,4.7,0,0,0,4.95,4.95"/><rect x="234.75" y="62.15" width="15.69" height="4.94"/><path d="M259.59,52.15a4.48,4.48,0,0,1-3.4-1.37,4.92,4.92,0,0,1,0-6.72,4.92,4.92,0,0,1,6.81,0,4.92,4.92,0,0,1,0,6.72,4.51,4.51,0,0,1-3.41,1.37m-4,2.43h8.22V76.15h-8.22Z"/><path d="M289.25,56.44a10.28,10.28,0,0,1,2.48,7.25V76.15h-8.22V65c0-2.78-1.2-4.24-3.27-4.24S277,62.23,277,65V76.15h-8.22V54.58h7.52V57a7.37,7.37,0,0,1,6.5-3.18,8.41,8.41,0,0,1,6.49,2.65"/><path d="M312.86,44.33h8.22V76.15h-7.51V73.59A9.24,9.24,0,0,1,305.92,77a10.59,10.59,0,0,1-8.05-3.23,11.72,11.72,0,0,1-3.05-8.35A11.76,11.76,0,0,1,297.87,57a10.61,10.61,0,0,1,8.05-3.22,9.5,9.5,0,0,1,6.94,2.56Zm-4.95,26A4.69,4.69,0,0,0,311.44,69a4.86,4.86,0,0,0,1.42-3.58,4.84,4.84,0,0,0-4.95-5,4.85,4.85,0,0,0-3.58,1.41A4.73,4.73,0,0,0,303,65.37a4.7,4.7,0,0,0,5,4.95"/><path d="M341.32,68.07l5.79,2.16C345,74.7,341.5,77,336.64,77a12,12,0,0,1-8.71-3.23,11.06,11.06,0,0,1-3.36-8.35A11.47,11.47,0,0,1,327.66,57a11.19,11.19,0,0,1,8.45-3.22,11.34,11.34,0,0,1,8,2.87,10.17,10.17,0,0,1,3.05,7.83,8.45,8.45,0,0,1-.35,2.38H332c.58,2.52,2.17,4,4.6,4a5.13,5.13,0,0,0,4.68-2.82m-1.59-5.44c-.48-2.17-1.72-3.27-3.8-3.27s-3.36,1.1-3.89,3.27Z"/><polygon points="371.96 76.15 362.76 76.15 358.78 70.98 354.81 76.15 345.96 76.15 354.41 65.24 346.23 54.58 355.43 54.58 359.31 59.62 362.85 54.58 371.69 54.58 363.78 65.46 371.96 76.15"/><rect class="cls-5" x="194.04" y="93.3" width="1.25" height="8.77"/><path class="cls-5" d="M202.9,98.9v3.17h-1.22v-3c0-1.22-.56-1.9-1.52-1.9s-1.63.84-1.63,2v2.87h-1.22v-5.8h1.11v1.2a2.12,2.12,0,0,1,2.08-1.33c1.46,0,2.4,1,2.4,2.76"/><polygon class="cls-5" points="208.13 96.27 209.37 96.27 206.68 102.06 205.63 102.06 202.94 96.27 204.23 96.27 206.18 100.65 208.13 96.27"/><path class="cls-5" d="M214,100.14l.91.37a2.64,2.64,0,0,1-2.65,1.69,3,3,0,0,1-2.2-.84,3,3,0,0,1-.86-2.21A3.08,3.08,0,0,1,210,97a2.85,2.85,0,0,1,2.15-.84,2.78,2.78,0,0,1,2,.75,2.52,2.52,0,0,1,.78,1.9,2.81,2.81,0,0,1-.07.62h-4.48a1.85,1.85,0,0,0,1.88,1.8,1.78,1.78,0,0,0,1.72-1.07m-3.58-1.56h3.31a1.55,1.55,0,0,0-1.64-1.47,1.6,1.6,0,0,0-1.67,1.47"/><path class="cls-5" d="M215.88,100.23l1-.2a1.42,1.42,0,0,0,1.52,1.23c.73,0,1.24-.31,1.24-.84s-.43-.69-1.2-.8l-.32-.05c-1.32-.22-2-.8-2-1.74s.88-1.71,2.16-1.71a2.12,2.12,0,0,1,2.37,1.72l-1,.21a1.18,1.18,0,0,0-1.25-1c-.55,0-1,.26-1,.76s.52.74,1.35.85l.34,0c1.22.18,1.82.74,1.82,1.68a1.52,1.52,0,0,1-.69,1.33,3.09,3.09,0,0,1-1.73.46,2.33,2.33,0,0,1-2.59-2"/><polygon class="cls-5" points="225.62 96.28 225.62 97.32 224.08 97.32 224.08 102.06 222.91 102.06 222.91 97.32 221.59 97.32 221.59 96.28 222.91 96.28 222.91 94.27 224.08 94.27 224.08 96.28 225.62 96.28"/><path class="cls-5" d="M236.69,98.9v3.18h-1.21v-3c0-1.23-.56-1.91-1.53-1.91s-1.61.84-1.61,2v2.87h-1.22v-3c0-1.22-.56-1.9-1.52-1.9S228,98,228,99.2v2.87h-1.21v-5.8h1.1v1.2a2.34,2.34,0,0,1,4.22,0,2.29,2.29,0,0,1,2.19-1.31c1.47,0,2.43,1,2.43,2.75"/><path class="cls-5" d="M242.73,100.14l.91.37A2.64,2.64,0,0,1,241,102.2a3,3,0,0,1-2.21-.84,3,3,0,0,1-.85-2.21,3.08,3.08,0,0,1,.79-2.17,3.15,3.15,0,0,1,4.18-.09,2.52,2.52,0,0,1,.78,1.9,2.85,2.85,0,0,1-.08.62h-4.48a1.87,1.87,0,0,0,1.89,1.8,1.79,1.79,0,0,0,1.72-1.07m-3.58-1.56h3.31a1.55,1.55,0,0,0-1.65-1.47,1.59,1.59,0,0,0-1.66,1.47"/><path class="cls-5" d="M250.69,98.9v3.17h-1.22v-3c0-1.22-.56-1.9-1.52-1.9s-1.64.84-1.64,2v2.87H245.1v-5.8h1.11v1.2a2.12,2.12,0,0,1,2.08-1.33c1.46,0,2.4,1,2.4,2.76"/><polygon class="cls-5" points="255.21 96.28 255.21 97.32 253.68 97.32 253.68 102.06 252.51 102.06 252.51 97.32 251.18 97.32 251.18 96.28 252.51 96.28 252.51 94.27 253.68 94.27 253.68 96.28 255.21 96.28"/><path class="cls-5" d="M265.53,102.07h-1.4l-1.88-3.23h-2v3.23H259V93.3h3.11c2.09,0,3.4,1,3.4,2.74a2.59,2.59,0,0,1-2,2.6Zm-5.28-7.71v3.42h1.85c1.35,0,2.11-.61,2.11-1.74s-.71-1.68-2.11-1.68Z"/><path class="cls-5" d="M270.89,100.14l.91.37a2.64,2.64,0,0,1-2.66,1.69,3,3,0,0,1-2.2-.84,3,3,0,0,1-.85-2.21,3.08,3.08,0,0,1,.79-2.17,3.15,3.15,0,0,1,4.18-.09,2.52,2.52,0,0,1,.78,1.9,2.85,2.85,0,0,1-.08.62h-4.48a1.87,1.87,0,0,0,1.89,1.8,1.79,1.79,0,0,0,1.72-1.07m-3.58-1.56h3.31A1.55,1.55,0,0,0,269,97.11a1.59,1.59,0,0,0-1.66,1.47"/><path class="cls-5" d="M278.1,93.3h1.21v8.76H278.2v-1.19a2.54,2.54,0,0,1-2.4,1.33,2.83,2.83,0,0,1-2.14-.85,3.31,3.31,0,0,1,0-4.36,2.83,2.83,0,0,1,2.14-.85,2.56,2.56,0,0,1,2.3,1.16Zm-2,7.9a1.94,1.94,0,0,0,1.45-.57,2,2,0,0,0,.57-1.46,2,2,0,0,0-.57-1.45,1.92,1.92,0,0,0-1.45-.59,2,2,0,0,0-2,2,2,2,0,0,0,.57,1.46,1.94,1.94,0,0,0,1.45.57"/><path class="cls-5" d="M285.46,100.14l.92.37a2.64,2.64,0,0,1-2.66,1.69,3,3,0,0,1-2.2-.84,3,3,0,0,1-.85-2.21,3.08,3.08,0,0,1,.79-2.17,2.82,2.82,0,0,1,2.14-.84,2.78,2.78,0,0,1,2,.75,2.48,2.48,0,0,1,.78,1.9,2.81,2.81,0,0,1-.07.62h-4.48a1.86,1.86,0,0,0,1.89,1.8,1.77,1.77,0,0,0,1.71-1.07m-3.58-1.56h3.32a1.55,1.55,0,0,0-1.65-1.47,1.61,1.61,0,0,0-1.67,1.47"/><path class="cls-5" d="M293.34,96.28v5.79h-1.22V97.32H289.3v4.75h-1.16V97.32h-1.28v-1h1.28V95.7c0-1.7.69-2.54,2.07-2.54a3,3,0,0,1,.74.1v1.1a1.93,1.93,0,0,0-.52-.08c-.83,0-1.13.52-1.13,1.44v.56Zm-.61-2.69a.81.81,0,0,1,0,1.61.81.81,0,1,1,0-1.61"/><path class="cls-5" d="M300.69,98.9v3.17h-1.22v-3c0-1.22-.56-1.9-1.52-1.9s-1.63.84-1.63,2v2.87H295.1v-5.8h1.11v1.2a2.12,2.12,0,0,1,2.08-1.33c1.46,0,2.4,1,2.4,2.76"/><path class="cls-5" d="M306.71,100.14l.92.37A2.65,2.65,0,0,1,305,102.2a3,3,0,0,1-2.2-.84,3,3,0,0,1-.85-2.21,3,3,0,0,1,.79-2.17,2.82,2.82,0,0,1,2.14-.84,2.78,2.78,0,0,1,2,.75,2.48,2.48,0,0,1,.78,1.9,2.81,2.81,0,0,1-.07.62h-4.48a1.86,1.86,0,0,0,1.89,1.8,1.77,1.77,0,0,0,1.71-1.07m-3.58-1.56h3.32a1.56,1.56,0,0,0-1.65-1.47,1.61,1.61,0,0,0-1.67,1.47"/><path class="cls-5" d="M313.93,93.3h1.2v8.76H314v-1.19a2.54,2.54,0,0,1-2.4,1.33,2.85,2.85,0,0,1-2.15-.85,3.34,3.34,0,0,1,0-4.36,2.85,2.85,0,0,1,2.15-.85,2.56,2.56,0,0,1,2.3,1.16Zm-2,7.9a2,2,0,0,0,1.45-.57,2.06,2.06,0,0,0,.57-1.46,2,2,0,0,0-.57-1.45,1.94,1.94,0,0,0-1.45-.59,2,2,0,0,0-2,2,2,2,0,0,0,.57,1.46,1.93,1.93,0,0,0,1.45.57"/></g></g></svg>